<svg width="134" height="48" viewBox="0 0 134 48" fill="none" xmlns="http://www.w3.org/2000/svg">
<path fill-rule="evenodd" clip-rule="evenodd" d="M18.9905 8L34.0278 19.8366L21.0468 29.8722V41L6 29.3675L18.9905 19.3246V8ZM21.0468 12.2355V20.334L9.36197 29.3675L18.9905 36.8112V28.8627L30.6848 19.822L21.0468 12.2355Z" fill="#757575"/>
<path d="M116.549 29.7747H119.662C120.45 29.7747 121.042 29.8637 121.441 30.0417C121.843 30.2151 122.214 30.5103 122.551 30.9273C122.888 31.3443 123.153 31.8855 123.345 32.5508C123.537 33.2162 123.633 34.0432 123.633 35.0318C123.633 35.9221 123.533 36.6975 123.331 37.3582C123.13 38.0142 122.874 38.5342 122.565 38.9185C122.256 39.3027 121.881 39.5932 121.441 39.79C121.005 39.9821 120.442 40.0781 119.754 40.0781H116.549V29.7747ZM118.25 31.5177V38.3421H119.529C120.077 38.3421 120.473 38.2906 120.717 38.1875C120.965 38.0844 121.166 37.9298 121.321 37.7236C121.48 37.5128 121.612 37.1825 121.715 36.7327C121.818 36.2829 121.869 35.6901 121.869 34.9545C121.869 34.1908 121.815 33.5887 121.708 33.1482C121.605 32.7078 121.441 32.3611 121.216 32.108C120.995 31.855 120.726 31.6887 120.407 31.609C120.168 31.5481 119.707 31.5177 119.023 31.5177H118.25Z" fill="#757575"/>
<path d="M106.908 40.0781V29.7747H108.567L112.025 36.6553V29.7747H113.613V40.0781H111.898L108.497 33.3591V40.0781H106.908Z" fill="#757575"/>
<path d="M97.2031 29.7747H98.904V35.3551C98.904 36.2219 98.9251 36.7865 98.9672 37.0489C99.0422 37.5034 99.2202 37.8548 99.5014 38.1032C99.7872 38.3515 100.162 38.4757 100.626 38.4757C101.019 38.4757 101.34 38.389 101.589 38.2156C101.837 38.0376 102.006 37.7939 102.095 37.4847C102.189 37.1708 102.235 36.5007 102.235 35.4746V29.7747H103.943V35.1864C103.943 36.5687 103.868 37.569 103.718 38.1875C103.573 38.8013 103.24 39.3003 102.72 39.6845C102.205 40.0641 101.523 40.2538 100.675 40.2538C99.7942 40.2538 99.1054 40.0969 98.6088 39.7829C98.1168 39.4643 97.7584 39.0192 97.5335 38.4476C97.3132 37.8712 97.2031 36.8123 97.2031 35.2708V29.7747Z" fill="#757575"/>
<path d="M88.8691 40.0781V29.7747H94.6604V31.5177H90.57V33.9565H94.1052V35.6995H90.57V40.0781H88.8691Z" fill="#757575"/>
<path d="M82.7984 40.0781H80.9429L80.2049 37.7377H76.8314L76.1356 40.0781H74.3223L77.6115 29.7747H79.4178L82.7984 40.0781ZM79.6567 36.0017L78.4971 32.1783L77.3515 36.0017H79.6567Z" fill="#757575"/>
<path d="M70.6895 40.0781V29.7747H72.3903V40.0781H70.6895Z" fill="#757575"/>
<path d="M61.0625 29.7747H64.176C64.9632 29.7747 65.5559 29.8637 65.9542 30.0417C66.3571 30.2151 66.7273 30.5103 67.0647 30.9273C67.402 31.3443 67.6667 31.8855 67.8589 32.5508C68.051 33.2162 68.147 34.0432 68.147 35.0318C68.147 35.9221 68.0463 36.6975 67.8448 37.3582C67.6433 38.0142 67.388 38.5342 67.0787 38.9185C66.7695 39.3027 66.3946 39.5932 65.9542 39.79C65.5184 39.9821 64.9562 40.0781 64.2674 40.0781H61.0625V29.7747ZM62.7633 31.5177V38.3421H64.0425C64.5907 38.3421 64.9866 38.2906 65.2303 38.1875C65.4786 38.0844 65.6801 37.9298 65.8347 37.7236C65.994 37.5128 66.1252 37.1825 66.2283 36.7327C66.3314 36.2829 66.3829 35.6901 66.3829 34.9545C66.3829 34.1908 66.329 33.5887 66.2213 33.1482C66.1182 32.7078 65.9542 32.3611 65.7293 32.108C65.5091 31.855 65.2396 31.6887 64.921 31.609C64.6821 31.5481 64.2205 31.5177 63.5365 31.5177H62.7633Z" fill="#757575"/>
<path d="M52.0527 40.0781V29.7747H58.322V31.5177H53.7536V33.8019H57.9987V35.5379H53.7536V38.3421H58.4766V40.0781H52.0527Z" fill="#757575"/>
<path d="M41.0332 40.0781V29.7747H43.5845L45.1166 36.8029L46.6347 29.7747H49.193V40.0781H47.6117V31.9675L45.9319 40.0781H44.2873L42.6216 31.9675V40.0781H41.0332Z" fill="#757575"/>
<path d="M97.023 23.0781H95.1675L94.4296 20.7377H91.056L90.3602 23.0781H88.5469L91.8361 12.7747H93.6424L97.023 23.0781ZM93.8813 19.0017L92.7217 15.1783L91.5761 19.0017H93.8813Z" fill="#757575"/>
<path d="M79.7266 12.7747H82.8401C83.6273 12.7747 84.22 12.8637 84.6182 13.0417C85.0212 13.2151 85.3914 13.5103 85.7287 13.9273C86.0661 14.3443 86.3308 14.8855 86.5229 15.5508C86.715 16.2162 86.8111 17.0432 86.8111 18.0318C86.8111 18.9221 86.7103 19.6975 86.5089 20.3582C86.3074 21.0142 86.052 21.5342 85.7428 21.9185C85.4335 22.3027 85.0587 22.5932 84.6182 22.79C84.1825 22.9821 83.6202 23.0781 82.9315 23.0781H79.7266V12.7747ZM81.4274 14.5177V21.3421H82.7066C83.2548 21.3421 83.6507 21.2906 83.8943 21.1875C84.1427 21.0844 84.3441 20.9298 84.4988 20.7236C84.6581 20.5128 84.7893 20.1825 84.8924 19.7327C84.9954 19.2829 85.047 18.6901 85.047 17.9545C85.047 17.1908 84.9931 16.5887 84.8853 16.1482C84.7822 15.7078 84.6182 15.3611 84.3933 15.108C84.1731 14.855 83.9037 14.6887 83.5851 14.609C83.3461 14.5481 82.8846 14.5177 82.2005 14.5177H81.4274Z" fill="#757575"/>
<path d="M77.6831 23.0781H75.8277L75.0897 20.7377H71.7161L71.0203 23.0781H69.207L72.4963 12.7747H74.3025L77.6831 23.0781ZM74.5415 19.0017L73.3818 15.1783L72.2362 19.0017H74.5415Z" fill="#757575"/>
<path d="M60.416 23.0781V12.7747H62.0747L65.5326 19.6553V12.7747H67.121V23.0781H65.4061L62.0044 16.3591V23.0781H60.416Z" fill="#757575"/>
<path d="M58.3433 23.0781H56.4878L55.7499 20.7377H52.3763L51.6805 23.0781H49.8672L53.1564 12.7747H54.9627L58.3433 23.0781ZM55.2017 19.0017L54.042 15.1783L52.8964 19.0017H55.2017Z" fill="#757575"/>
<path d="M46.4667 19.2898L48.1184 19.9294C47.8607 21.082 47.432 21.9254 46.8322 22.4596C46.2325 22.989 45.4945 23.2538 44.6183 23.2538C43.5172 23.2538 42.6246 22.8297 41.9405 21.9816C41.1533 21.0024 40.7598 19.681 40.7598 18.0177C40.7598 16.2606 41.1557 14.8854 41.9475 13.8921C42.6363 13.0299 43.5617 12.5989 44.7237 12.5989C45.6702 12.5989 46.462 12.9222 47.0993 13.5688C47.5538 14.028 47.8864 14.7097 48.0973 15.614L46.4105 16.106C46.3027 15.5484 46.0872 15.122 45.7639 14.8268C45.4453 14.527 45.0681 14.377 44.6324 14.377C44.0092 14.377 43.5008 14.6488 43.1072 15.1923C42.7136 15.7358 42.5168 16.6331 42.5168 17.8841C42.5168 19.182 42.7089 20.1051 43.0932 20.6533C43.4774 21.2015 43.9764 21.4756 44.5902 21.4756C45.04 21.4756 45.4289 21.3022 45.7569 20.9555C46.0849 20.6041 46.3215 20.0489 46.4667 19.2898Z" fill="#757575"/>
</svg>
