<svg width="134" height="48" viewBox="0 0 134 48" fill="none" xmlns="http://www.w3.org/2000/svg">
<path d="M121.291 36.5086H118.67V20.5285H120.982L121.11 22.02C121.578 21.4873 122.143 21.0718 122.803 20.7735C123.464 20.4681 124.185 20.3154 124.966 20.3154C125.96 20.3154 126.848 20.5569 127.629 21.0399C128.418 21.5228 129.036 22.1833 129.483 23.0214C129.938 23.8524 130.165 24.797 130.165 25.8552C130.165 26.9134 129.938 27.8616 129.483 28.6997C129.036 29.5306 128.418 30.1876 127.629 30.6705C126.848 31.1535 125.96 31.395 124.966 31.395C124.235 31.395 123.556 31.2636 122.931 31.0008C122.306 30.738 121.759 30.3687 121.291 29.8928V36.5086ZM124.401 29.0299C124.998 29.0299 125.527 28.895 125.989 28.6251C126.458 28.3481 126.82 27.9717 127.075 27.4958C127.338 27.0129 127.47 26.4624 127.47 25.8445C127.47 25.2267 127.338 24.6798 127.075 24.2039C126.813 23.721 126.45 23.3445 125.989 23.0747C125.527 22.7977 124.998 22.6592 124.401 22.6592C123.84 22.6592 123.333 22.787 122.878 23.0427C122.423 23.2913 122.058 23.6357 121.781 24.0761C121.504 24.5093 121.34 25.0065 121.291 25.5676V26.1535C121.34 26.7146 121.5 27.2117 121.77 27.645C122.047 28.0782 122.413 28.4191 122.867 28.6677C123.322 28.9092 123.833 29.0299 124.401 29.0299Z" fill="#757575"/>
<path d="M116.776 31.1819H114.496L114.347 29.8715C113.957 30.3545 113.47 30.7309 112.888 31.0008C112.305 31.2636 111.659 31.395 110.949 31.395C110.196 31.395 109.525 31.2494 108.935 30.9582C108.346 30.6599 107.881 30.2551 107.54 29.7437C107.206 29.2323 107.039 28.6499 107.039 27.9965C107.039 27.3076 107.22 26.7039 107.582 26.1855C107.952 25.6599 108.452 25.248 109.085 24.9497C109.724 24.6514 110.452 24.5022 111.268 24.5022C111.766 24.5022 112.263 24.559 112.76 24.6727C113.264 24.7863 113.729 24.9461 114.156 25.1521V24.8112C114.156 24.3424 114.028 23.9376 113.772 23.5967C113.516 23.2558 113.172 22.993 112.739 22.8083C112.305 22.6166 111.819 22.5207 111.279 22.5207C110.789 22.5207 110.299 22.6059 109.809 22.7764C109.319 22.9397 108.861 23.1847 108.435 23.5115L107.689 21.4553C108.371 21.0789 109.067 20.7948 109.777 20.6031C110.494 20.4113 111.194 20.3154 111.876 20.3154C112.877 20.3154 113.744 20.5143 114.475 20.912C115.207 21.3026 115.771 21.8637 116.169 22.5953C116.574 23.3197 116.776 24.1755 116.776 25.1627V31.1819ZM111.492 29.2856C111.954 29.2856 112.38 29.1897 112.771 28.998C113.168 28.8062 113.491 28.5399 113.74 28.199C113.996 27.8509 114.131 27.4532 114.145 27.0058V26.8886C113.811 26.6471 113.435 26.4624 113.016 26.3346C112.597 26.1997 112.174 26.1322 111.748 26.1322C111.094 26.1322 110.558 26.2813 110.139 26.5796C109.72 26.8708 109.511 27.2543 109.511 27.7302C109.511 28.0214 109.596 28.2877 109.766 28.5292C109.937 28.7636 110.171 28.9482 110.469 29.0832C110.775 29.2181 111.116 29.2856 111.492 29.2856Z" fill="#757575"/>
<path d="M106.159 29.1576C105.42 29.8963 104.539 30.4716 103.517 30.8835C102.501 31.2954 101.39 31.5014 100.182 31.5014C98.9819 31.5014 97.8704 31.2954 96.8477 30.8835C95.8249 30.4716 94.9371 29.8927 94.1843 29.147C93.4315 28.3942 92.8455 27.5135 92.4265 26.5049C92.0146 25.4893 91.8086 24.3849 91.8086 23.1917C91.8086 21.9915 92.0146 20.8871 92.4265 19.8785C92.8455 18.87 93.4315 17.9929 94.1843 17.2471C94.9371 16.4943 95.8249 15.9119 96.8477 15.5C97.8704 15.088 98.9819 14.8821 100.182 14.8821C101.382 14.8821 102.49 15.088 103.506 15.5C104.522 15.9119 105.399 16.4836 106.137 17.2152L104.177 19.2074C103.687 18.625 103.098 18.1704 102.409 17.8437C101.72 17.517 100.963 17.3537 100.14 17.3537C99.3583 17.3537 98.6339 17.4993 97.9663 17.7905C97.3058 18.0817 96.7305 18.49 96.2404 19.0156C95.7504 19.5412 95.3668 20.1591 95.0898 20.8693C94.82 21.5795 94.685 22.3537 94.685 23.1917C94.685 24.0298 94.82 24.804 95.0898 25.5142C95.3668 26.2173 95.7504 26.8352 96.2404 27.3679C96.7305 27.8934 97.3058 28.3018 97.9663 28.593C98.6339 28.8842 99.3583 29.0298 100.14 29.0298C100.963 29.0298 101.72 28.8665 102.409 28.5397C103.098 28.213 103.687 27.7585 104.177 27.1761L106.159 29.1576Z" fill="#757575"/>
<path d="M82.525 31.1819H79.9043V20.5285H82.1841L82.28 22.4674C82.6493 21.7856 83.1465 21.2565 83.7715 20.8801C84.4036 20.5036 85.128 20.3154 85.9448 20.3154C86.1578 20.3154 86.3745 20.3296 86.5946 20.358C86.8219 20.3865 87.0456 20.4291 87.2658 20.4859L86.9462 22.8509C86.5059 22.7231 86.0797 22.6592 85.6678 22.6592C85.0428 22.6592 84.4924 22.8048 84.0165 23.096C83.5478 23.3872 83.182 23.792 82.9192 24.3105C82.6564 24.8218 82.525 25.4184 82.525 26.1002V31.1819Z" fill="#757575"/>
<path d="M77.8714 29.9461C76.5433 30.912 75.0909 31.395 73.5142 31.395C72.3707 31.395 71.3445 31.1464 70.4354 30.6492C69.5263 30.1521 68.8054 29.4738 68.2727 28.6144C67.7472 27.748 67.4844 26.7749 67.4844 25.6954C67.4844 24.6656 67.7223 23.7458 68.1982 22.9362C68.6811 22.1265 69.3381 21.4873 70.169 21.0186C71.0071 20.5498 71.9517 20.3154 73.0028 20.3154C74.0966 20.3154 75.0554 20.5747 75.8793 21.0931C76.7102 21.6045 77.3565 22.3183 77.8182 23.2345C78.2798 24.1436 78.5107 25.2018 78.5107 26.4092V26.7501H70.3075C70.4354 27.233 70.6591 27.6592 70.9787 28.0285C71.3054 28.3978 71.7102 28.6855 72.1932 28.8914C72.6761 29.0974 73.2195 29.2004 73.8232 29.2004C74.9595 29.2004 76.0107 28.8311 76.9766 28.0924L77.8714 29.9461ZM70.201 25.216H76.0817C76.0249 24.6833 75.8615 24.2181 75.5916 23.8204C75.3288 23.4227 74.9844 23.1137 74.5582 22.8936C74.1392 22.6663 73.6669 22.5526 73.1413 22.5526C72.6087 22.5526 72.1328 22.6663 71.7138 22.8936C71.2947 23.1208 70.9538 23.4369 70.691 23.8417C70.4283 24.2394 70.2649 24.6975 70.201 25.216Z" fill="#757575"/>
<path d="M67.264 20.5283L62.8642 31.1817H60.3287L55.9395 20.5283H58.752L61.6071 28.5184L64.4728 20.5283H67.264Z" fill="#757575"/>
<path d="M53.3319 17.7052C52.9625 17.7052 52.65 17.5773 52.3944 17.3217C52.1458 17.0589 52.0215 16.7428 52.0215 16.3735C52.0215 16.0113 52.1458 15.7023 52.3944 15.4467C52.65 15.1839 52.9625 15.0525 53.3319 15.0525C53.7083 15.0525 54.0243 15.1839 54.28 15.4467C54.5357 15.7023 54.6635 16.0113 54.6635 16.3735C54.6635 16.7428 54.5357 17.0589 54.28 17.3217C54.0243 17.5773 53.7083 17.7052 53.3319 17.7052ZM54.6422 31.1818H52.0215V20.5283H54.6422V31.1818Z" fill="#757575"/>
<path d="M50.7457 31.1818H47.6243L44.1193 25.1733H41.0937V31.1818H38.2812V15.2017H44.1726C45.4155 15.2017 46.4773 15.4005 47.358 15.7983C48.2386 16.196 48.9169 16.7677 49.3928 17.5135C49.8686 18.2521 50.1065 19.1434 50.1065 20.1875C50.1065 21.2954 49.8331 22.2365 49.2862 23.0106C48.7393 23.7777 47.9652 24.3387 46.9638 24.6938L50.7457 31.1818ZM41.0937 22.8721H43.9702C45 22.8721 45.799 22.6448 46.3672 22.1903C46.9425 21.7358 47.2301 21.0965 47.2301 20.2727C47.2301 19.4488 46.946 18.8096 46.3778 18.3551C45.8097 17.9005 45.0071 17.6733 43.9702 17.6733H41.0937V22.8721Z" fill="#757575"/>
<path d="M18.5 16.5455C18.5 14.7273 17.2273 13.4546 13.0455 13.4546C16.6818 19.2728 9.59091 28.1819 0.5 31.6364H3.77273C13.5909 29.091 18.5 18.3637 18.5 16.5455Z" fill="#757575"/>
<path d="M29.2273 30C19.7727 29.8182 19.7727 25.6364 19.7727 23.2728C18.2559 23.2728 16.3142 24.7637 17.7727 27.091C19.5959 30 22.6818 30.9091 29.2273 30Z" fill="#757575"/>
<path d="M20.6818 31.2728C17.5909 30.7273 16.5 28.9091 16.1364 26.3637C15.0153 27.2728 14.3182 29.2728 15.2273 30.1819C16.1364 31.091 17.4091 31.6364 20.6818 31.2728Z" fill="#757575"/>
</svg>
