<svg xmlns="http://www.w3.org/2000/svg" viewBox="0 0 870 170" height="40" width="200" aria-labelledby="IILB" class="sc-bcXHqe sZiLj"><title id="EMLB">EMARKETER</title><path d="M283 103V114H248V57H282V68H260V80H280V91H260V103H283Z" style="fill: #757575; color: #757575;"></path><path d="M356.92 114L351.3 76.8L334.31 114H331.27L314.27 76.81L308.64 114H296.72L305.49 57H317.63L332.77 91.33L347.99 57H360.16L368.84 114H356.92Z" style="fill: #757575; color: #757575;"></path><path d="M419.2 103H396.11L392.13 114H379.32L401.66 57H413.3L436.36 114H423.25L419.2 103ZM400.16 92H415.12L407.6 71.62L400.16 92Z" style="fill: #757575; color: #757575;"></path><path d="M469.73 95H462V114H450V57H472.39C483.5 57 491.78 64.86 491.78 75.85C491.78 83.31 487.81 89.4 481.67 92.44L493.94 113.99H480.6L469.73 94.99V95ZM462 83H472.03C477.27 83 480.4 79.85 480.4 75.5C480.4 71.15 477.27 68 472.03 68H462V83Z" style="fill: #757575; color: #757575;"></path><path d="M541.6 114L522 86.14V114H510V57H522V83.37L540.2 57H554.17L535.17 84.43L556.23 114H541.6Z" style="fill: #757575; color: #757575;"></path><path d="M604 103V114H569V57H603V68H581V80H601V91H581V103H604Z" style="fill: #757575; color: #757575;"></path><path d="M660 68H644V114H632V68H616V57H660V68Z" style="fill: #757575; color: #757575;"></path><path d="M709 103V114H674V57H709V68H687V80H707V91H687V103H709Z" style="fill: #757575; color: #757575;"></path><path d="M745.73 95H738V114H726V57H748.39C759.5 57 767.78 64.86 767.78 75.85C767.78 83.31 763.81 89.4 757.67 92.44L769.94 113.99H756.6L745.73 94.99V95ZM738 83H748.03C753.27 83 756.4 79.85 756.4 75.5C756.4 71.15 753.27 68 748.03 68H738V83Z" style="fill: #757575; color: #757575;"></path><path d="M78 114H0V135H78V114Z" style="fill: #757575; color: #757575;"></path><path d="M64 76H0V97H64V76Z" style="fill: #757575; color: #757575;"></path><path d="M174.24 126.09C171.47 106.46 162.25 27.75 162.25 27.75L119.17 90.35L90.75 36H0V57H76.45L115.63 131.58L147.44 84.66L151.89 135H175.31C175.31 135 174.49 127.86 174.24 126.09Z" style="fill: #757575; color: #757575;"></path><path d="M211 0V170" stroke="white" stroke-width="1" stroke-miterlimit="10"></path></svg>